<svg xmlns="http://www.w3.org/2000/svg" version="1.1" xmlns:xlink="http://www.w3.org/1999/xlink" xmlns:svgjs="http://svgjs.com/svgjs" width="1440" height="560" preserveAspectRatio="none" viewBox="0 0 1440 560"><g mask="url(&quot;#SvgjsMask1000&quot;)" fill="none"><rect width="1440" height="560" x="0" y="0" fill="#1e3266"></rect><path d="M1512 560L0 560 L0 368.11Q30.33 326.44, 72 356.77Q125.72 290.49, 192 344.2Q238.96 271.16, 312 318.13Q390.77 276.9, 432 355.68Q436.69 288.38, 504 293.07Q572.45 241.52, 624 309.98Q706.26 272.25, 744 354.51Q785.93 324.44, 816 366.38Q825.27 303.65, 888 312.93Q956.23 261.16, 1008 329.4Q1048.75 250.15, 1128 290.9Q1175.33 266.23, 1200 313.55Q1281.87 275.41, 1320 357.28Q1346.61 263.89, 1440 290.5Q1487.85 266.35, 1512 314.2z" fill="#182f5d"></path><path d="M1488 560L0 560 L0 361.3Q58.02 299.32, 120 357.34Q188.93 354.27, 192 423.2Q244.08 355.28, 312 407.37Q346 321.37, 432 355.37Q484.81 336.18, 504 388.99Q563.19 376.18, 576 435.36Q577.99 365.35, 648 367.34Q727.89 327.24, 768 407.13Q844.49 363.62, 888 440.1Q923.5 355.6, 1008 391.1Q1059.15 370.25, 1080 421.41Q1134.47 355.88, 1200 410.36Q1222.73 361.09, 1272 383.81Q1300.78 340.59, 1344 369.37Q1407.91 361.28, 1416 425.2Q1442.88 380.08, 1488 406.96z" fill="#25467d"></path><path d="M1512 560L0 560 L0 478.74Q74 432.74, 120 506.74Q157.38 424.12, 240 461.49Q289.99 391.48, 360 441.47Q425 434.47, 432 499.46Q473.9 421.36, 552 463.25Q591.94 383.19, 672 423.13Q739.81 370.94, 792 438.75Q853.24 427.99, 864 489.23Q866.32 419.56, 936 421.88Q1004.4 418.28, 1008 486.68Q1034.8 441.48, 1080 468.28Q1160.69 428.97, 1200 509.66Q1226.88 416.54, 1320 443.42Q1350.52 401.94, 1392 432.46Q1479.9 400.37, 1512 488.27z" fill="#356cb1"></path><path d="M1560 560L0 560 L0 521.27Q78.42 479.69, 120 558.11Q174.31 492.42, 240 546.74Q280.75 467.49, 360 508.24Q403.27 479.51, 432 522.78Q507.88 478.66, 552 554.54Q590.38 472.92, 672 511.3Q700.55 467.85, 744 496.39Q840.37 472.76, 864 569.13Q889.62 522.75, 936 548.37Q1013.93 506.3, 1056 584.22Q1074.13 482.35, 1176 500.47Q1220.24 472.71, 1248 516.94Q1316.38 465.33, 1368 533.71Q1429.96 523.67, 1440 585.63Q1465.79 491.42, 1560 517.22z" fill="white"></path></g><defs><mask id="SvgjsMask1000"><rect width="1440" height="560" fill="#ffffff"></rect></mask></defs></svg>